<svg width="33" height="32" viewBox="0 0 33 32" fill="none" xmlns="http://www.w3.org/2000/svg">
<path d="M16.6665 0C7.8305 0 0.666504 7.164 0.666504 16C0.666504 24.836 7.8305 32 16.6665 32C25.5025 32 32.6665 24.836 32.6665 16C32.6665 7.164 25.5025 0 16.6665 0ZM19.6238 24.8213C19.1518 24.9133 18.9998 24.6227 18.9998 24.3733V21.812C18.9998 20.9413 18.6945 20.3733 18.3585 20.084C20.4385 19.8533 22.6225 19.064 22.6225 15.4787C22.6225 14.4587 22.2585 13.6267 21.6612 12.9733C21.7572 12.7373 22.0772 11.788 21.5692 10.5027C21.5692 10.5027 20.7865 10.252 19.0052 11.4587C18.2572 11.2533 17.4598 11.1507 16.6665 11.1467C15.8732 11.1507 15.0758 11.2533 14.3292 11.46C12.5465 10.2533 11.7625 10.504 11.7625 10.504C11.2572 11.7893 11.5758 12.7387 11.6732 12.9733C11.0758 13.6267 10.7105 14.4587 10.7105 15.4787C10.7105 19.0547 12.8892 19.8547 14.9625 20.0907C14.6958 20.324 14.4545 20.7347 14.3705 21.3387C13.8372 21.5773 12.4865 21.9893 11.6545 20.5627C11.6545 20.5627 11.1612 19.6667 10.2238 19.6C10.2238 19.6 9.31317 19.588 10.1598 20.168C10.1598 20.168 10.7732 20.4547 11.1958 21.5333C11.1958 21.5333 11.7358 23.2 14.3332 22.6347V24.372C14.3332 24.6187 14.1825 24.908 13.7172 24.8213C10.0078 23.588 7.33317 20.0893 7.33317 15.9667C7.33317 10.8107 11.5132 6.63333 16.6665 6.63333C21.8198 6.63333 25.9998 10.8107 25.9998 15.9667C25.9998 20.088 23.3292 23.5867 19.6238 24.8213Z" fill="#85868D"/>
</svg>
