<svg width="33" height="32" viewBox="0 0 33 32" fill="none" xmlns="http://www.w3.org/2000/svg">
<path d="M20.272 8.40267C19.288 8.35733 18.992 8.34933 16.5 8.34933C14.008 8.34933 13.7133 8.35867 12.7293 8.40267C10.1973 8.51867 9.01867 9.71733 8.90267 12.2293C8.85867 13.2133 8.848 13.508 8.848 16C8.848 18.492 8.85867 18.7867 8.90267 19.772C9.01867 22.2773 10.192 23.4827 12.7293 23.5987C13.712 23.6427 14.008 23.6533 16.5 23.6533C18.9933 23.6533 19.288 23.644 20.272 23.5987C22.804 23.484 23.9813 22.2813 24.0987 19.772C24.1427 18.788 24.152 18.492 24.152 16C24.152 13.508 24.1427 13.2133 24.0987 12.2293C23.9813 9.71867 22.8013 8.51867 20.272 8.40267ZM16.5 20.7933C13.8533 20.7933 11.7067 18.648 11.7067 16C11.7067 13.3533 13.8533 11.208 16.5 11.208C19.1467 11.208 21.2933 13.3533 21.2933 16C21.2933 18.6467 19.1467 20.7933 16.5 20.7933ZM21.4827 12.1387C20.864 12.1387 20.3627 11.6373 20.3627 11.0187C20.3627 10.4 20.864 9.89867 21.4827 9.89867C22.1013 9.89867 22.6027 10.4 22.6027 11.0187C22.6027 11.636 22.1013 12.1387 21.4827 12.1387ZM19.6107 16C19.6107 17.7187 18.2173 19.1107 16.5 19.1107C14.7827 19.1107 13.3893 17.7187 13.3893 16C13.3893 14.2813 14.7827 12.8893 16.5 12.8893C18.2173 12.8893 19.6107 14.2813 19.6107 16ZM16.5 0C7.664 0 0.5 7.164 0.5 16C0.5 24.836 7.664 32 16.5 32C25.336 32 32.5 24.836 32.5 16C32.5 7.164 25.336 0 16.5 0ZM25.7773 19.848C25.624 23.2413 23.7347 25.1213 20.3493 25.2773C19.3533 25.3227 19.0347 25.3333 16.5 25.3333C13.9653 25.3333 13.648 25.3227 12.652 25.2773C9.26 25.1213 7.37867 23.2387 7.22267 19.848C7.17733 18.8533 7.16667 18.5347 7.16667 16C7.16667 13.4653 7.17733 13.148 7.22267 12.152C7.37867 8.76 9.26133 6.87867 12.652 6.724C13.648 6.67733 13.9653 6.66667 16.5 6.66667C19.0347 6.66667 19.3533 6.67733 20.3493 6.724C23.7427 6.88 25.6253 8.76667 25.7773 12.152C25.8227 13.148 25.8333 13.4653 25.8333 16C25.8333 18.5347 25.8227 18.8533 25.7773 19.848Z" fill="#85868D"/>
</svg>
