<svg width="24" height="24" viewBox="0 0 24 24" fill="none" xmlns="http://www.w3.org/2000/svg">
<path d="M22.7179 10.35L20.8799 8.87202C20.737 8.75683 20.6254 8.60748 20.5555 8.43776C20.4856 8.26805 20.4596 8.08345 20.4799 7.90102L20.7349 5.55602C20.7693 5.24464 20.7333 4.92951 20.6295 4.63391C20.5258 4.33832 20.3569 4.06981 20.1354 3.84825C19.914 3.62668 19.6455 3.4577 19.35 3.35381C19.0544 3.24992 18.7393 3.21377 18.4279 3.24802L16.0799 3.50002C15.8975 3.52024 15.7129 3.49419 15.5432 3.42428C15.3735 3.35437 15.2242 3.24286 15.1089 3.10002L13.6309 1.26302C13.4284 1.02906 13.178 0.841394 12.8966 0.712771C12.6151 0.584149 12.3093 0.517578 11.9999 0.517578C11.6905 0.517578 11.3847 0.584149 11.1033 0.712771C10.8219 0.841394 10.5714 1.02906 10.3689 1.26302L8.89092 3.10002C8.7761 3.24336 8.6268 3.35524 8.45699 3.42519C8.28717 3.49515 8.10239 3.52089 7.91992 3.50002L5.57492 3.24802C5.26354 3.21363 4.94841 3.24965 4.65281 3.35341C4.35722 3.45718 4.08871 3.62603 3.86715 3.84751C3.64558 4.06898 3.4766 4.33741 3.37271 4.63296C3.26882 4.92851 3.23267 5.24362 3.26692 5.55502L3.52192 7.90002C3.5427 8.08248 3.51691 8.26724 3.44696 8.43703C3.37701 8.60683 3.26519 8.75614 3.12192 8.87102L1.28192 10.35C1.03786 10.5461 0.84091 10.7944 0.705582 11.0766C0.570254 11.3589 0.5 11.668 0.5 11.981C0.5 12.2941 0.570254 12.6031 0.705582 12.8854C0.84091 13.1677 1.03786 13.416 1.28192 13.612L3.11992 15.09C3.26312 15.205 3.37489 15.3543 3.44483 15.5241C3.51477 15.6938 3.5406 15.8786 3.51992 16.061L3.26492 18.406C3.23053 18.7174 3.26655 19.0325 3.37031 19.3281C3.47408 19.6237 3.64293 19.8922 3.86441 20.1138C4.08588 20.3354 4.35431 20.5043 4.64986 20.6082C4.94541 20.7121 5.26052 20.7483 5.57192 20.714L7.91792 20.459C8.10035 20.4387 8.28495 20.4647 8.45466 20.5346C8.62438 20.6045 8.77373 20.7161 8.88892 20.859L10.3689 22.7C10.565 22.9441 10.8133 23.141 11.0955 23.2764C11.3778 23.4117 11.6869 23.4819 11.9999 23.4819C12.313 23.4819 12.622 23.4117 12.9043 23.2764C13.1866 23.141 13.4349 22.9441 13.6309 22.7L15.1089 20.862C15.2242 20.7192 15.3735 20.6077 15.5432 20.5378C15.7129 20.4679 15.8975 20.4418 16.0799 20.462L18.4249 20.717C18.7363 20.7514 19.0514 20.7154 19.347 20.6116C19.6426 20.5079 19.9111 20.339 20.1327 20.1175C20.3543 19.8961 20.5232 19.6276 20.6271 19.3321C20.731 19.0365 20.7672 18.7214 20.7329 18.41L20.4779 16.064C20.4571 15.8816 20.4828 15.6968 20.5527 15.527C20.6227 15.3571 20.7346 15.2078 20.8779 15.093L22.7159 13.615C22.96 13.419 23.1569 13.1707 23.2923 12.8884C23.4276 12.6061 23.4978 12.2971 23.4978 11.984C23.4978 11.671 23.4276 11.3619 23.2923 11.0796C23.1569 10.7974 22.96 10.5491 22.7159 10.353L22.7179 10.35ZM12.3999 15.048C12.2463 15.2481 12.052 15.4134 11.8299 15.5329C11.6077 15.6524 11.3627 15.7235 11.1111 15.7415C10.8595 15.7594 10.6069 15.7238 10.3701 15.6371C10.1332 15.5503 9.9174 15.4143 9.73692 15.238L7.29292 12.8C7.19741 12.7078 7.12123 12.5974 7.06882 12.4754C7.01641 12.3534 6.98883 12.2222 6.98767 12.0894C6.98652 11.9566 7.01182 11.825 7.0621 11.7021C7.11238 11.5792 7.18663 11.4675 7.28053 11.3736C7.37442 11.2797 7.48607 11.2055 7.60897 11.1552C7.73186 11.1049 7.86354 11.0796 7.99632 11.0808C8.1291 11.0819 8.26032 11.1095 8.38233 11.1619C8.50433 11.2143 8.61468 11.2905 8.70692 11.386L10.9579 13.637L14.8669 8.42602C15.0261 8.21385 15.2629 8.07358 15.5255 8.03607C15.6555 8.0175 15.7879 8.02472 15.9151 8.05731C16.0423 8.0899 16.1619 8.14723 16.2669 8.22602C16.372 8.30482 16.4605 8.40353 16.5274 8.51653C16.5943 8.62953 16.6383 8.7546 16.6569 8.8846C16.6754 9.0146 16.6682 9.14699 16.6356 9.2742C16.603 9.40142 16.5457 9.52097 16.4669 9.62602L12.3999 15.048Z" fill="#F47073"/>
</svg>
