<svg width="35" height="38" viewBox="0 0 35 38" fill="none" xmlns="http://www.w3.org/2000/svg">
<path fill-rule="evenodd" clip-rule="evenodd" d="M33.1336 1.01747L22.6019 11.5775H5.42723C5.00301 11.5775 4.50986 11.888 4.32631 12.2699L0.093857 21.0748C-0.089951 21.4572 0.00448704 22.0114 0.304847 22.3127L10.2879 32.3272L11.9881 34.0315L13.2277 35.2759L15.6308 37.6862C15.9312 37.9875 16.4172 37.9886 16.7184 37.6864L29.9444 24.4164C30.2446 24.1151 30.488 23.5276 30.488 23.1016V17.3998L31.8356 16.0183C32.033 15.816 32.193 15.4229 32.193 15.1384V10.3211L33.1336 9.41563L34.3458 8.19878C34.6459 7.89747 34.8893 7.30843 34.8893 6.88402V0.794929C34.8893 -0.0541905 34.4025 -0.254614 33.8023 0.347066L33.1336 1.01747ZM11.4277 31.148L27.3938 15.2401L30.4021 12.2062V15.6069L29.2622 16.7606L28.7007 17.3302L28.5022 17.533L13.1291 32.8472L11.4277 31.148ZM16.0873 35.7959L14.3764 34.0909L28.7233 19.7848L28.7354 19.7703V23.1803L16.0873 35.7959ZM33.2226 7.01804L28.8084 11.4278L28.0223 12.2111L26.7017 13.5311L10.31 29.8985L8.6072 28.1989L23.388 13.4393L33.2226 3.61644V7.01804Z" fill="#EC1115"/>
</svg>
