<svg width="33" height="32" viewBox="0 0 33 32" fill="none" xmlns="http://www.w3.org/2000/svg">
<path d="M12.6202 14.4467H10.0002V11.968H12.3775C14.8815 11.968 14.5722 14.4467 12.6202 14.4467ZM20.3388 15.8573H23.8375C23.6842 13.608 20.6908 13.444 20.3388 15.8573ZM12.4722 16.3853H10.0002V18.9813H12.4322C14.8082 18.98 14.6628 16.3853 12.4722 16.3853ZM32.8335 16C32.8335 24.836 25.6695 32 16.8335 32C7.9975 32 0.833496 24.836 0.833496 16C0.833496 7.164 7.9975 0 16.8335 0C25.6695 0 32.8335 7.164 32.8335 16ZM15.0242 15.0227C17.2482 13.8853 17.1668 9.71467 12.9082 9.652H7.50016V21.292H12.5282C17.8055 21.292 17.7162 16.0027 15.0242 15.0227ZM19.5002 10.8013H24.8335V9.63467H19.5002V10.8013ZM26.0908 15.7253C25.3642 11.052 18.0202 10.7773 18.0202 16.888C18.0202 22.9227 24.9268 21.9787 25.9522 18.968H23.4882C22.6282 19.9653 20.1442 19.676 20.2828 17.3893H26.1628C26.1748 16.6493 26.1508 16.1187 26.0908 15.7253Z" fill="#85868D"/>
</svg>
