<svg width="33" height="32" viewBox="0 0 33 32" fill="none" xmlns="http://www.w3.org/2000/svg">
<g clip-path="url(#clip0_122_5052)">
<path d="M16.1665 0C7.32178 0 0.166504 7.15528 0.166504 16C0.166504 24.8447 7.32178 32 16.1665 32C25.0112 32 32.1665 24.8447 32.1665 16C32.1665 7.15528 25.0112 0 16.1665 0ZM20.1417 15.8509H17.4584V24.9938H13.7814V15.8509H11.8932V12.8199H13.7814V10.9814C13.7814 8.4472 15.0236 6.95652 18.005 6.95652C19.0485 6.95652 19.2472 6.95652 20.2907 6.95652V10.0373C19.7938 10.0373 19.0982 10.0373 18.7007 10.0373C17.5081 10.0373 17.4584 10.5342 17.4584 11.3789V12.8199H20.3901L20.1417 15.8509Z" fill="#85868D"/>
</g>
<defs>
<clipPath id="clip0_122_5052">
<rect width="32" height="32" fill="white" transform="translate(0.166504)"/>
</clipPath>
</defs>
</svg>
