<svg width="33" height="32" viewBox="0 0 33 32" fill="none" xmlns="http://www.w3.org/2000/svg">
<path d="M16.3335 0C7.48878 0 0.333496 7.15528 0.333496 16C0.333496 24.8447 7.48878 32 16.3335 32C25.1782 32 32.3335 24.8447 32.3335 16C32.3335 7.15528 25.1782 0 16.3335 0ZM11.3646 24.1988H7.73722V12.472H11.3646V24.1988ZM9.57573 11.1801C8.48256 11.1801 7.78691 10.4348 7.78691 9.49068C7.78691 8.49689 8.48256 7.80124 9.57573 7.80124C10.6689 7.80124 11.3646 8.54658 11.4142 9.49068C11.4142 10.4348 10.6689 11.1801 9.57573 11.1801ZM24.9298 24.1988H21.2031V17.6894C21.2031 16.1988 20.6565 15.1553 19.3149 15.1553C18.2714 15.1553 17.526 15.8509 17.2776 16.4969C17.1782 16.7453 17.1285 17.0932 17.1285 17.3913V24.1491H13.4515V12.4224H16.731V14.0124H16.8304C17.3273 13.2671 18.7186 12.1242 20.6565 12.1242C23.0913 12.1242 24.9298 13.7143 24.9298 17.1429V24.1988Z" fill="#85868D"/>
</svg>
