<svg width="24" height="25" viewBox="0 0 24 25" fill="none" xmlns="http://www.w3.org/2000/svg">
<path d="M15.04 22.39L15.052 22.397C16.1141 23.0732 17.3751 23.3669 18.6267 23.2297C19.8783 23.0924 21.0456 22.5323 21.936 21.642L22.71 20.868C23.0557 20.5219 23.2498 20.0527 23.2498 19.5635C23.2498 19.0743 23.0557 18.6051 22.71 18.259L19.449 15C19.1028 14.6543 18.6336 14.4601 18.1445 14.4601C17.6553 14.4601 17.1861 14.6543 16.84 15V15C16.6688 15.1714 16.4655 15.3073 16.2418 15.4001C16.018 15.4929 15.7782 15.5406 15.536 15.5406C15.2937 15.5406 15.0539 15.4929 14.8302 15.4001C14.6064 15.3073 14.4031 15.1714 14.232 15L9.01396 9.78099C8.66827 9.43487 8.4741 8.96568 8.4741 8.47649C8.4741 7.98731 8.66827 7.51812 9.01396 7.17199V7.17199C9.18534 7.00083 9.3213 6.79755 9.41406 6.5738C9.50682 6.35005 9.55456 6.11021 9.55456 5.86799C9.55456 5.62578 9.50682 5.38594 9.41406 5.16218C9.3213 4.93843 9.18534 4.73516 9.01396 4.56399L5.75396 1.29999C5.40783 0.954303 4.93865 0.760132 4.44946 0.760132C3.96027 0.760132 3.49109 0.954303 3.14496 1.29999L2.37096 2.07399C1.48079 2.96437 0.920772 4.13164 0.783331 5.38315C0.64589 6.63467 0.939236 7.89565 1.61496 8.95799L1.62296 8.96999C5.19637 14.2598 9.75093 18.8154 15.04 22.39V22.39Z" stroke="#5D5D67" stroke-width="1.5" stroke-linecap="round" stroke-linejoin="round"/>
</svg>
